<svg xmlns="http://www.w3.org/2000/svg" width="360" height="44" fill="none"><path fill="#243943" d="M0 42.367V8.41h25.177v5.747H6.857v7.525h17.047v5.721H6.857v9.241h18.969v5.722zM29.9 31.317l6.67-.65c.4 2.24 1.217 3.882 2.446 4.936q1.843 1.573 4.967 1.573c2.209 0 3.868-.468 4.992-1.404q1.676-1.404 1.678-3.276c0-.805-.237-1.485-.705-2.053s-1.292-1.054-2.465-1.473q-1.206-.419-5.49-1.485-5.512-1.364-7.738-3.356-3.126-2.8-3.126-6.833.002-2.59 1.473-4.854c.98-1.504 2.396-2.652 4.237-3.438 1.84-.786 4.074-1.18 6.682-1.18q6.393.002 9.622 2.802 3.227 2.8 3.394 7.481l-6.857.3q-.44-2.62-1.891-3.763c-.967-.76-2.415-1.148-4.343-1.148s-3.55.412-4.68 1.23c-.723.524-1.091 1.229-1.091 2.108q-.002 1.208 1.017 2.06c.86.723 2.964 1.485 6.302 2.27q5.006 1.181 7.4 2.447c1.597.842 2.851 1.99 3.75 3.45q1.356 2.19 1.354 5.41-.002 2.92-1.622 5.466c-1.08 1.697-2.609 2.964-4.587 3.787-1.977.824-4.436 1.242-7.387 1.242q-6.438 0-9.89-2.976c-2.302-1.985-3.675-4.873-4.124-8.673zM70.92 42.367v-28.21H60.841V8.412h26.98v5.747H77.77v28.209h-6.857zM111.888 42.367l-2.963-7.712H95.354l-2.802 7.712h-7.275L98.504 8.41h7.251l13.596 33.956zm-5.166-13.434-4.68-12.598-4.586 12.598zM127.107 42.367v-28.21H117.03V8.412h26.98v5.747h-10.052v28.209h-6.857zM148.434 42.367V8.41h25.177v5.747h-18.32v7.525h17.047v5.721h-17.047v9.241h18.969v5.722zM242.927 42.96v-6.508h6.507v6.508zM277.881 30.48l6.645 2.11q-1.527 5.559-5.085 8.254-3.557 2.696-9.023 2.696-6.766 0-11.119-4.624t-4.355-12.635q0-8.478 4.38-13.165 4.38-4.691 11.512-4.693c4.156 0 7.525 1.23 10.121 3.682 1.541 1.454 2.702 3.538 3.475 6.252l-6.788 1.622c-.4-1.76-1.242-3.15-2.515-4.168q-1.91-1.527-4.642-1.528c-2.515 0-4.561.904-6.128 2.707-1.566 1.81-2.352 4.73-2.352 8.78q.002 6.439 2.315 9.172t6.021 2.733q2.731-.001 4.705-1.735 1.965-1.74 2.826-5.466zM289.019 26.194c0-3.457.517-6.364 1.553-8.71a16 16 0 0 1 3.164-4.655q2.001-2.058 4.386-3.058 3.173-1.34 7.319-1.341c5.004 0 9.004 1.553 12.011 4.655q4.504 4.652 4.505 12.947c0 5.528-1.491 9.77-4.467 12.866q-4.473 4.641-11.949 4.642c-4.985 0-9.066-1.541-12.042-4.624-2.983-3.082-4.468-7.325-4.468-12.728zm7.063-.231q-.001 5.766 2.664 8.742t6.764 2.976q4.098-.002 6.726-2.951 2.628-2.956 2.627-8.86c0-3.938-.855-6.796-2.558-8.711q-2.565-2.872-6.795-2.87c-2.821 0-5.104.967-6.833 2.907q-2.594 2.909-2.595 8.767M327.211 42.96V9.01h10.258l6.159 23.161 6.089-23.161H360v33.956h-6.37v-26.73l-6.739 26.724h-6.602l-6.713-26.725V42.96h-6.371z"/><path fill="#FF780D" d="M202.887 22.438a1.154 1.154 0 1 0 0-2.31 1.154 1.154 0 0 0 0 2.31M206.768 22.438a1.154 1.154 0 1 0 0-2.308 1.154 1.154 0 0 0 0 2.308M210.512 22.438a1.154 1.154 0 1 0 0-2.31 1.154 1.154 0 0 0 0 2.31M214.231 22.438a1.154 1.154 0 1 0 0-2.31 1.154 1.154 0 0 0 0 2.31M201.096 20.404a1.055 1.055 0 1 0 0-2.11 1.055 1.055 0 0 0 0 2.11M203.049 18.382a.99.99 0 0 1-.986-.986c0-.543.443-.986.986-.986s.986.443.986.986a.99.99 0 0 1-.986.986M204.927 16.429a.906.906 0 1 1 .001-1.812.906.906 0 0 1-.001 1.812M206.772 14.517a.905.905 0 1 0-.012-1.81.905.905 0 0 0 .012 1.81M210.512 14.52a.906.906 0 1 1 .001-1.812.906.906 0 0 1-.001 1.812M214.399 14.52a.906.906 0 1 1 .001-1.812.906.906 0 0 1-.001 1.812M218.906 13.617a.905.905 0 1 0-1.81-.01.905.905 0 0 0 1.81.01M221.874 14.52a.906.906 0 1 1 .001-1.812.906.906 0 0 1-.001 1.812M208.696 12.61a.836.836 0 1 1 0-1.671.836.836 0 0 1 0 1.671M212.556 12.622a.836.836 0 1 0-.01-1.672.836.836 0 0 0 .01 1.672M216.246 12.61a.836.836 0 1 1 0-1.671.836.836 0 0 1 0 1.671M220.102 12.61a.836.836 0 1 1 0-1.671.836.836 0 0 1 0 1.671M223.958 12.61a.836.836 0 1 1 0-1.671.836.836 0 0 1 0 1.671M208.696 31.622a.836.836 0 1 1 0-1.672.836.836 0 0 1 0 1.672M212.446 31.622a.836.836 0 1 1 0-1.672.836.836 0 0 1 0 1.672M216.196 31.622a.836.836 0 1 1 0-1.672.836.836 0 0 1 0 1.672M219.946 31.622a.836.836 0 1 1 0-1.672.836.836 0 0 1 0 1.672M223.696 31.622a.836.836 0 1 1 0-1.672.836.836 0 0 1 0 1.672M210.668 10.551a.699.699 0 1 0 0-1.398.699.699 0 0 0 0 1.398M214.399 10.551a.699.699 0 1 0 0-1.398.699.699 0 0 0 0 1.398M218.13 10.551a.699.699 0 1 0 0-1.398.699.699 0 0 0 0 1.398M221.862 10.551a.698.698 0 1 0 0-1.396.698.698 0 0 0 0 1.396M225.593 10.551a.699.699 0 1 0 0-1.398.699.699 0 0 0 0 1.398M210.668 33.344a.699.699 0 1 0 0-1.398.699.699 0 0 0 0 1.398M214.399 33.344a.699.699 0 1 0 0-1.398.699.699 0 0 0 0 1.398M218.13 33.344a.699.699 0 1 0 0-1.398.699.699 0 0 0 0 1.398M221.862 33.344a.698.698 0 1 0 0-1.396.698.698 0 0 0 0 1.396M225.593 33.344a.699.699 0 1 0 0-1.398.699.699 0 0 0 0 1.398M212.552 8.58a.618.618 0 1 0 0-1.237.618.618 0 0 0 0 1.236M216.339 8.58a.617.617 0 1 0 .001-1.235.617.617 0 0 0-.001 1.234M220.121 8.58a.617.617 0 1 0 0-1.235.617.617 0 0 0 0 1.234M223.902 8.58a.618.618 0 1 0 0-1.237.618.618 0 0 0 0 1.236M227.683 8.586a.62.62 0 0 1-.618-.618c0-.337.281-.618.618-.618s.618.281.618.618a.623.623 0 0 1-.618.618M212.552 35.26a.618.618 0 1 0 0-1.236.618.618 0 0 0 0 1.236M216.383 35.266a.62.62 0 0 1-.617-.617c0-.337.28-.618.617-.618s.618.28.618.617a.623.623 0 0 1-.618.618M220.214 35.26a.618.618 0 1 0 0-1.236.618.618 0 0 0 0 1.236M224.045 35.266a.62.62 0 0 1-.617-.617c0-.337.281-.618.617-.618.337 0 .618.28.618.617a.623.623 0 0 1-.618.618M227.877 35.266a.62.62 0 0 1-.618-.617c0-.337.281-.618.618-.618s.617.28.617.617-.28.618-.617.618M214.505 6.533a.517.517 0 1 1 0-1.036.517.517 0 1 1 0 1.036M214.399 36.982a.517.517 0 1 1 0-1.036.517.517 0 1 1 0 1.036M218.286 36.982a.516.516 0 0 1-.517-.518.517.517 0 1 1 .517.518M222.011 36.982a.517.517 0 1 1 0-1.036.517.517 0 1 1 0 1.036M225.774 36.982a.517.517 0 1 1 0-1.036.517.517 0 1 1 0 1.036M229.617 36.982a.517.517 0 1 1 0-1.036.517.517 0 1 1 0 1.036M218.268 6.533a.516.516 0 0 1-.518-.518c0-.287.23-.518.518-.518.287 0 .517.231.517.518s-.23.518-.517.518M222.036 6.533a.517.517 0 1 1 0-1.036.517.517 0 1 1 0 1.036M225.805 6.533a.517.517 0 1 1 0-1.036.517.517 0 1 1 0 1.036M229.574 6.533a.517.517 0 1 1 0-1.036.517.517 0 1 1 0 1.036M216.339 4.642a.462.462 0 1 0 0-.924.462.462 0 0 0 0 .924M216.339 38.941a.462.462 0 1 0 0-.924.462.462 0 0 0 0 .924M220.133 38.941a.462.462 0 1 0 0-.924.462.462 0 0 0 0 .924M223.927 38.941a.462.462 0 1 0 0-.924.462.462 0 0 0 0 .924M227.727 38.941a.461.461 0 1 0 0-.922.461.461 0 0 0 0 .922M231.52 38.941a.462.462 0 1 0 0-.924.462.462 0 0 0 0 .924M220.102 4.642a.46.46 0 1 1 0-.923.46.46 0 1 1 0 .923M223.871 4.642a.462.462 0 1 0 0-.924.462.462 0 0 0 0 .924M227.633 4.642a.462.462 0 1 0 0-.924.462.462 0 0 0 0 .924M231.402 4.642a.462.462 0 1 0 0-.924.462.462 0 0 0 0 .924M218.268 2.652a.405.405 0 1 1-.002-.81.405.405 0 0 1 .002.81M218.268 40.782a.405.405 0 1 1-.002-.81.405.405 0 0 1 .002.81M222.011 40.782a.405.405 0 1 1 0-.811.405.405 0 1 1 0 .811M225.749 40.782a.405.405 0 1 1-.002-.81.405.405 0 0 1 .002.81M229.486 40.782a.405.405 0 1 1 0-.811.405.405 0 1 1 0 .811M233.224 40.782a.405.405 0 1 1-.002-.81.405.405 0 0 1 .002.81M222.036 2.652a.405.405 0 1 1 0-.811.405.405 0 1 1 0 .81M225.805 2.652a.404.404 0 0 1-.405-.406.405.405 0 1 1 .405.406M229.574 2.652a.405.405 0 1 1-.002-.81.405.405 0 0 1 .002.81M233.336 2.652a.405.405 0 1 1 0-.811.405.405 0 1 1 0 .81M220.133.811a.404.404 0 0 1-.405-.405.405.405 0 1 1 .405.406M220.133 42.698a.404.404 0 0 1-.405-.406.405.405 0 1 1 .405.406M223.927 42.698a.405.405 0 1 1-.002-.81.405.405 0 0 1 .002.81M227.727 42.698a.405.405 0 1 1 0-.812.405.405 0 1 1 0 .812M231.52 42.698a.405.405 0 1 1 0-.812.405.405 0 1 1 0 .812M235.314 42.698a.404.404 0 0 1-.405-.406.405.405 0 1 1 .405.406M223.871.811a.405.405 0 1 1-.002-.81.405.405 0 0 1 .002.81M227.608.811a.404.404 0 0 1-.405-.405.405.405 0 1 1 .405.406M231.346.811a.405.405 0 1 1-.002-.81.405.405 0 0 1 .002.81M235.083.811a.405.405 0 1 1 0-.811.405.405 0 1 1 0 .811M206.768 29.863a.906.906 0 1 1 .001-1.812.906.906 0 0 1-.001 1.812M210.512 29.863a.906.906 0 1 1 .001-1.812.906.906 0 0 1-.001 1.812M214.399 29.863a.906.906 0 1 1 .001-1.812.906.906 0 0 1-.001 1.812M218.286 29.863a.905.905 0 1 1 .002-1.81.905.905 0 0 1-.002 1.81M222.174 29.863a.905.905 0 1 1 0-1.81.905.905 0 0 1 0 1.81M204.932 27.999a.904.904 0 1 0-.01-1.809.904.904 0 0 0 .01 1.809M203.049 26.15a.99.99 0 0 1-.986-.986c0-.543.443-.986.986-.986s.986.444.986.986a.99.99 0 0 1-.986.986M204.927 24.21a.99.99 0 0 1-.986-.986c0-.543.443-.986.986-.986s.986.443.986.986a.99.99 0 0 1-.986.986M208.615 24.21a.99.99 0 0 1-.986-.986c0-.543.443-.986.986-.986s.986.443.986.986a.99.99 0 0 1-.986.986M212.365 24.21a.99.99 0 0 1-.986-.986c0-.543.443-.986.986-.986s.986.443.986.986a.99.99 0 0 1-.986.986M216.096 24.21a.99.99 0 0 1-.986-.986c0-.543.443-.986.986-.986s.986.443.986.986a.99.99 0 0 1-.986.986M204.927 20.335a.99.99 0 0 1-.986-.986c0-.543.443-.986.986-.986s.986.443.986.986a.99.99 0 0 1-.986.986M208.696 20.335a.99.99 0 0 1-.986-.986c0-.543.443-.986.986-.986s.986.443.986.986a.99.99 0 0 1-.986.986M212.365 20.335a.99.99 0 0 1-.986-.986c0-.543.443-.986.986-.986s.986.443.986.986a.99.99 0 0 1-.986.986M216.302 20.335a.99.99 0 0 1-.986-.986c0-.543.443-.986.986-.986s.986.443.986.986a.99.99 0 0 1-.986.986M206.768 18.382a.99.99 0 0 1-.986-.986c0-.543.443-.986.986-.986s.986.443.986.986a.99.99 0 0 1-.986.986M210.512 18.382a.99.99 0 0 1-.986-.986c0-.543.443-.986.986-.986s.986.443.986.986a.99.99 0 0 1-.986.986M214.231 18.382a.99.99 0 0 1-.986-.986c0-.543.443-.986.986-.986s.986.443.986.986a.99.99 0 0 1-.986.986M218.006 18.382a.99.99 0 0 1-.986-.986c0-.543.443-.986.986-.986s.985.443.985.986a.99.99 0 0 1-.985.986M208.696 16.429a.906.906 0 1 1 .001-1.812.906.906 0 0 1-.001 1.812M212.552 16.429a.906.906 0 1 1 .001-1.812.906.906 0 0 1-.001 1.812M216.096 16.429a.906.906 0 1 1 .001-1.812.906.906 0 0 1-.001 1.812M219.909 16.429a.906.906 0 0 1 0-1.81.905.905 0 0 1 0 1.81M208.696 27.985a.906.906 0 1 1 .001-1.812.906.906 0 0 1-.001 1.812M212.446 27.985a.906.906 0 1 1 .001-1.812.906.906 0 0 1-.001 1.812M216.096 27.985a.906.906 0 1 1 .001-1.812.906.906 0 0 1-.001 1.812M219.913 28.001a.905.905 0 1 0-.01-1.81.905.905 0 0 0 .01 1.81M206.768 26.15a.99.99 0 0 1-.986-.986c0-.543.443-.986.986-.986s.986.444.986.986a.99.99 0 0 1-.986.986M210.512 26.15a.99.99 0 0 1-.986-.986c0-.543.443-.986.986-.986s.986.444.986.986a.99.99 0 0 1-.986.986M214.399 26.15a.99.99 0 0 1-.986-.986c0-.543.443-.986.986-.986s.986.444.986.986a.99.99 0 0 1-.986.986M218.006 26.15a.99.99 0 0 1-.986-.986c0-.543.443-.986.986-.986s.985.444.985.986a.99.99 0 0 1-.985.986M201.096 24.272a1.055 1.055 0 1 0 0-2.11 1.055 1.055 0 0 0 0 2.11"/><path fill="#FF780D" d="m179.494 42.554 28.771-28.995c2.546 2.577 5.086 5.153 7.631 7.73-6.988 7.089-13.983 14.177-20.971 21.265z"/><path fill="#FF780D" d="M179.494.044c9.672 9.44 19.349 18.88 29.021 28.321a8393 8393 0 0 1 7.381-7.075c-6.988-7.082-13.983-14.164-20.971-21.246z"/></svg>